HIERARCHY
ROOT Pelvis
{
	OFFSET 0.000000 0.000000 0.000000
	CHANNELS 6 Xposition Yposition Zposition Xrotation Yrotation Zrotation
	JOINT LeftUpLeg_virtual
	{
		OFFSET 0.000000 0.000000 0.000000
		CHANNELS 3 Xrotation Yrotation Zrotation
		JOINT LeftUpLeg
		{
			OFFSET 18.735201 -5.666702 -4.541200
			CHANNELS 3 Xrotation Yrotation Zrotation
			JOINT LeftLeg
			{
				OFFSET -0.021200 -31.938179 0.493100
				CHANNELS 3 Xrotation Yrotation Zrotation
				JOINT LeftFoot
				{
					OFFSET 0.021200 -31.938179 -4.336299
					CHANNELS 3 Xrotation Yrotation Zrotation
					JOINT LeftToeBase
					{
						OFFSET 0.943001 -26.722000 15.023500
						CHANNELS 3 Xrotation Yrotation Zrotation
						End Site
						{
							OFFSET 0 0 0
						}
					}
				}
			}
		}
	}
	JOINT RightUpLeg_virtual
	{
		OFFSET 0.000000 0.000000 0.000000
		CHANNELS 3 Xrotation Yrotation Zrotation
		JOINT RightUpLeg
		{
			OFFSET -18.735201 -5.666702 -4.541200
			CHANNELS 3 Xrotation Yrotation Zrotation
			JOINT RightLeg
			{
				OFFSET 0.018946 -31.938133 0.493100
				CHANNELS 3 Xrotation Yrotation Zrotation
				JOINT RightFoot
				{
					OFFSET -0.018946 -31.938126 -4.336299
					CHANNELS 3 Xrotation Yrotation Zrotation
					JOINT RightToeBase
					{
						OFFSET -0.943001 -26.722004 15.023500
						CHANNELS 3 Xrotation Yrotation Zrotation
						End Site
						{
							OFFSET 0 0 0
						}
					}
				}
			}
		}
	}
	JOINT Hips_virtual
	{
		OFFSET 0.000000 0.000000 0.000000
		CHANNELS 3 Xrotation Yrotation Zrotation
		JOINT Hips
		{
			OFFSET -0.000000 -0.000000 -0.000000
			CHANNELS 3 Xrotation Yrotation Zrotation
			JOINT Spine
			{
				OFFSET 0.000000 10.199997 -0.299500
				CHANNELS 3 Xrotation Yrotation Zrotation
				JOINT Spine1
				{
					OFFSET 0.000000 11.900002 -1.516600
					CHANNELS 3 Xrotation Yrotation Zrotation
					JOINT Spine2
					{
						OFFSET 0.000000 13.600006 -2.842500
						CHANNELS 3 Xrotation Yrotation Zrotation
						JOINT Neck_virtual
						{
							OFFSET 0.000000 0.000000 0.000000
							CHANNELS 3 Xrotation Yrotation Zrotation
							JOINT Neck
							{
								OFFSET 0.000000 9.624100 -2.890100
								CHANNELS 3 Xrotation Yrotation Zrotation
								JOINT Head
								{
									OFFSET 0.000000 14.068802 -1.351900
									CHANNELS 3 Xrotation Yrotation Zrotation
									End Site
									{
										OFFSET 0 0 0
									}
								}
							}
						}
						JOINT LeftShoulder_virtual
						{
							OFFSET 0.000000 0.000000 0.000000
							CHANNELS 3 Xrotation Yrotation Zrotation
							JOINT LeftShoulder
							{
								OFFSET 15.263000 10.923401 -0.547700
								CHANNELS 3 Xrotation Yrotation Zrotation
								JOINT LeftArm
								{
									OFFSET 25.438599 -2.830597 -13.032500
									CHANNELS 3 Xrotation Yrotation Zrotation
									JOINT LeftForeArm
									{
										OFFSET 29.960503 0.000000 0.000000
										CHANNELS 3 Xrotation Yrotation Zrotation
										JOINT LeftHand
										{
											OFFSET 27.849251 0.000000 0.000000
											CHANNELS 3 Xrotation Yrotation Zrotation
											End Site
											{
												OFFSET 0 0 0
											}
										}
									}
								}
							}
						}
						JOINT RightShoulder_virtual
						{
							OFFSET 0.000000 0.000000 0.000000
							CHANNELS 3 Xrotation Yrotation Zrotation
							JOINT RightShoulder
							{
								OFFSET -15.263000 10.923401 -0.547700
								CHANNELS 3 Xrotation Yrotation Zrotation
								JOINT RightArm
								{
									OFFSET -25.438599 -2.830597 -13.032500
									CHANNELS 3 Xrotation Yrotation Zrotation
									JOINT RightForeArm
									{
										OFFSET -29.960503 0.000000 0.000000
										CHANNELS 3 Xrotation Yrotation Zrotation
										JOINT RightHand
										{
											OFFSET -27.849251 0.000000 0.000000
											CHANNELS 3 Xrotation Yrotation Zrotation
											End Site
											{
												OFFSET 0 0 0
											}
										}
									}
								}
							}
						}
					}
				}
			}
		}
	}
}
MOTION
Frames: 4
Frame Time: 0.03333333
3.475655 79.900002 5.133224 0.000000 0.000000 0.000000 6.706345 7.208077 -2.666109 5.816177 12.104004 6.655788 38.478059 0.077220 5.054481 -28.399797 -0.331320 7.057029 0.000000 0.000000 0.000000 5.977472 9.104166 -3.419440 -61.740354 3.375431 -2.230370 67.328617 -5.673308 -1.620841 -16.532514 8.518164 -0.976088 0.000000 0.000000 0.000000 5.638098 7.950262 -3.121863 0.018189 0.794323 0.409401 4.168806 -3.195863 0.967584 2.868584 -2.537316 2.001661 0.000000 0.000000 0.000000 1.342658 -2.961285 2.046811 -1.958353 0.435808 -1.063453 0.000000 0.000000 0.000000 3.008084 -2.816030 2.148391 0.131675 6.753524 2.621294 -21.974377 -0.759876 -59.639224 153.020990 -82.731964 151.870390 0.000000 0.000000 0.000000 2.578714 -2.870586 1.851605 0.538082 -7.637281 13.985343 -12.201578 -4.400626 59.122172 176.532823 62.328304 -175.500249 0.000000 0.000000 0.000000 
2.785214 81.492760 4.807056 0.000000 0.000000 0.000000 7.243376 8.727215 -2.468416 6.647230 10.184844 6.826006 34.795743 -2.002325 5.717770 -20.343401 -0.751904 3.217294 0.000000 0.000000 0.000000 6.471513 10.921073 -3.188172 -59.635372 3.250059 -1.970416 62.889616 -6.654609 -1.464500 -15.349682 6.281714 -2.729493 0.000000 0.000000 0.000000 5.837972 8.923215 -2.989215 -0.337661 0.973656 0.470585 4.032812 -2.939744 1.361078 2.706333 -2.343295 1.728766 0.000000 0.000000 0.000000 1.381887 -2.846197 1.772670 -1.931570 0.433584 -1.011751 0.000000 0.000000 0.000000 3.038914 -2.764272 1.744714 0.003815 5.263011 2.684351 -24.610420 -2.784736 -59.140655 159.982647 -81.259444 158.910157 0.000000 0.000000 0.000000 2.519753 -2.646869 1.616309 0.261022 -6.655136 13.330243 -16.713297 -1.680777 56.796913 178.158736 60.815458 -176.908115 0.000000 0.000000 0.000000 
1.991275 83.952690 4.620264 0.000000 0.000000 0.000000 7.409250 11.155553 -2.289109 3.785042 9.845599 7.565369 32.926870 -2.591025 5.104857 -0.683554 -1.138996 -0.581695 0.000000 0.000000 0.000000 7.016030 13.130756 -3.046262 -56.225663 2.966636 -2.373731 55.392926 -7.321634 -1.501536 -8.918143 3.451365 -3.648861 0.000000 0.000000 0.000000 6.120039 10.653308 -2.769775 -0.376637 1.110580 0.313402 4.006601 -2.525712 2.107952 2.753052 -2.074504 1.321976 0.000000 0.000000 0.000000 1.668298 -2.591006 1.348925 -1.707109 0.462283 -1.038252 0.000000 0.000000 0.000000 3.113335 -2.582585 1.141610 -0.135779 2.649304 2.074456 -30.171719 -6.865023 -58.031206 163.356733 -81.370332 162.402719 0.000000 0.000000 0.000000 2.535135 -2.328254 1.278773 -0.018535 -5.700397 11.951596 -23.975257 2.907828 54.751251 179.670407 61.912243 -178.180566 0.000000 0.000000 0.000000 
1.341128 86.691513 4.489079 0.000000 0.000000 0.000000 6.960058 13.983813 -2.077516 -4.530309 10.838300 8.652432 36.374835 -0.825733 3.625189 24.066952 -0.575911 -2.107549 0.000000 0.000000 0.000000 7.077629 15.411967 -2.977142 -52.549167 2.491222 -3.056163 47.492447 -7.150413 -1.503063 0.617182 0.895065 -3.156764 0.000000 0.000000 0.000000 6.185952 12.872078 -2.483514 -0.327587 0.851502 -0.167755 4.309024 -1.962250 2.943524 2.994432 -1.784108 0.928501 0.000000 0.000000 0.000000 2.218852 -2.255561 0.953609 -1.271507 0.515488 -1.130236 0.000000 0.000000 0.000000 3.275199 -2.279787 0.555445 -0.311866 -0.382031 1.227314 -37.829781 -12.207430 -56.949991 163.621485 -83.538404 162.908304 0.000000 0.000000 0.000000 2.709060 -1.950226 0.995991 -0.286506 -4.891539 9.864583 -32.510970 8.436963 53.456004 -178.663378 65.357575 -179.501579 0.000000 0.000000 0.000000 
